<svg xmlns="http://www.w3.org/2000/svg" viewBox="0 0 32 32" fill="none">
  <defs>
    <linearGradient id="g" x1="0%" y1="0%" x2="100%" y2="100%">
      <stop offset="0%" stop-color="#7C5CFF"/>
      <stop offset="100%" stop-color="#2EE59D"/>
    </linearGradient>
  </defs>
  <!-- Left claw -->
  <path d="M13 16 C10 14, 6 13, 4 11 C3 9.5, 3 8, 4 7.5 C5 7, 6 7.5, 6.5 8.5 C7 9.5, 9 11, 13 13Z" fill="url(#g)"/>
  <path d="M4 11 C2.5 9, 1 7.5, 2 5.5 C2.5 4.5, 4 4, 5 5 C5.8 5.8, 5.5 7, 4.8 8.2Z" fill="url(#g)"/>
  <path d="M4 7.5 C3 6.5, 2 6, 1.8 4.8 C1.7 3.8, 2.5 3, 3.5 3.3 C4.3 3.6, 4.6 4.8, 4.3 6.2Z" fill="url(#g)" opacity="0.8"/>
  <!-- Right claw -->
  <path d="M19 16 C22 14, 26 13, 28 11 C29 9.5, 29 8, 28 7.5 C27 7, 26 7.5, 25.5 8.5 C25 9.5, 23 11, 19 13Z" fill="url(#g)"/>
  <path d="M28 11 C29.5 9, 31 7.5, 30 5.5 C29.5 4.5, 28 4, 27 5 C26.2 5.8, 26.5 7, 27.2 8.2Z" fill="url(#g)"/>
  <path d="M28 7.5 C29 6.5, 30 6, 30.2 4.8 C30.3 3.8, 29.5 3, 28.5 3.3 C27.7 3.6, 27.4 4.8, 27.7 6.2Z" fill="url(#g)" opacity="0.8"/>
  <!-- Body -->
  <ellipse cx="16" cy="15.5" rx="4" ry="5" fill="url(#g)" opacity="0.9"/>
  <!-- Head -->
  <ellipse cx="16" cy="11" rx="2.8" ry="2.2" fill="url(#g)"/>
  <!-- Eyes -->
  <circle cx="14.8" cy="10" r="0.7" fill="#0B0E18"/>
  <circle cx="17.2" cy="10" r="0.7" fill="#0B0E18"/>
  <circle cx="15" cy="9.8" r="0.25" fill="#fff"/>
  <circle cx="17.4" cy="9.8" r="0.25" fill="#fff"/>
  <!-- Antennae -->
  <path d="M15 9.5 C13 7, 10 5.5, 8 4" stroke="url(#g)" stroke-width="0.6" fill="none" stroke-linecap="round" opacity="0.7"/>
  <path d="M17 9.5 C19 7, 22 5.5, 24 4" stroke="url(#g)" stroke-width="0.6" fill="none" stroke-linecap="round" opacity="0.7"/>
  <!-- Tail -->
  <path d="M16 20.5 C16 20.5, 14.5 24, 14.5 26 C14.5 27.5, 15.2 28.5, 16 29 C16.8 28.5, 17.5 27.5, 17.5 26 C17.5 24, 16 20.5, 16 20.5Z" fill="url(#g)" opacity="0.8"/>
  <!-- Legs -->
  <path d="M13 15 C11 16.5, 9.5 17.5, 8.5 18" stroke="url(#g)" stroke-width="0.5" fill="none" stroke-linecap="round" opacity="0.5"/>
  <path d="M13 17 C11.5 18.5, 10 19.5, 9.2 20" stroke="url(#g)" stroke-width="0.5" fill="none" stroke-linecap="round" opacity="0.5"/>
  <path d="M19 15 C21 16.5, 22.5 17.5, 23.5 18" stroke="url(#g)" stroke-width="0.5" fill="none" stroke-linecap="round" opacity="0.5"/>
  <path d="M19 17 C20.5 18.5, 22 19.5, 22.8 20" stroke="url(#g)" stroke-width="0.5" fill="none" stroke-linecap="round" opacity="0.5"/>
</svg>
